<svg width="112" height="16" viewBox="0 0 112 16" fill="none" xmlns="http://www.w3.org/2000/svg">
<g clip-path="url(#clip0_23_1408)">
<g clip-path="url(#clip1_23_1408)">
<g clip-path="url(#clip2_23_1408)">
<path fill-rule="evenodd" clip-rule="evenodd" d="M8 13.2668L3.05573 16L4 10.2111L0 6.11145L5.52786 5.26687L8 0L10.4721 5.26687L16 6.11145L12 10.2111L12.9442 16L8 13.2668Z" fill="#FFC800"/>
</g>
</g>
</g>
<g clip-path="url(#clip3_23_1408)">
<g clip-path="url(#clip4_23_1408)">
<g clip-path="url(#clip5_23_1408)">
<path fill-rule="evenodd" clip-rule="evenodd" d="M32 13.2668L27.0557 16L28 10.2111L24 6.11145L29.5279 5.26687L32 0L34.4721 5.26687L40 6.11145L36 10.2111L36.9442 16L32 13.2668Z" fill="#FFC800"/>
</g>
</g>
</g>
<g clip-path="url(#clip6_23_1408)">
<g clip-path="url(#clip7_23_1408)">
<g clip-path="url(#clip8_23_1408)">
<path fill-rule="evenodd" clip-rule="evenodd" d="M56 13.2668L51.0557 16L52 10.2111L48 6.11145L53.5279 5.26687L56 0L58.4721 5.26687L64 6.11145L60 10.2111L60.9442 16L56 13.2668Z" fill="#FFC800"/>
</g>
</g>
</g>
<g clip-path="url(#clip9_23_1408)">
<g clip-path="url(#clip10_23_1408)">
<g clip-path="url(#clip11_23_1408)">
<path fill-rule="evenodd" clip-rule="evenodd" d="M80 13.2668L75.0557 16L76 10.2111L72 6.11145L77.5279 5.26687L80 0L82.4721 5.26687L88 6.11145L84 10.2111L84.9442 16L80 13.2668Z" fill="#FFC800"/>
</g>
</g>
</g>
<g clip-path="url(#clip12_23_1408)">
<g clip-path="url(#clip13_23_1408)">
<g clip-path="url(#clip14_23_1408)">
<path fill-rule="evenodd" clip-rule="evenodd" d="M104 13.2668L99.0557 16L100 10.2111L96 6.11145L101.528 5.26687L104 0L106.472 5.26687L112 6.11145L108 10.2111L108.944 16L104 13.2668Z" fill="#828282"/>
<path fill-rule="evenodd" clip-rule="evenodd" d="M104 13.2668L99.0557 16L100 10.2111L96 6.11145L101.528 5.26687L104 0V13.2668Z" fill="#FFC800"/>
</g>
</g>
</g>
<defs>
<clipPath id="clip0_23_1408">
<rect width="16" height="16" fill="white"/>
</clipPath>
<clipPath id="clip1_23_1408">
<rect width="16" height="16" fill="white"/>
</clipPath>
<clipPath id="clip2_23_1408">
<rect width="16" height="16" fill="white"/>
</clipPath>
<clipPath id="clip3_23_1408">
<rect width="16" height="16" fill="white" transform="translate(24)"/>
</clipPath>
<clipPath id="clip4_23_1408">
<rect width="16" height="16" fill="white" transform="translate(24)"/>
</clipPath>
<clipPath id="clip5_23_1408">
<rect width="16" height="16" fill="white" transform="translate(24)"/>
</clipPath>
<clipPath id="clip6_23_1408">
<rect width="16" height="16" fill="white" transform="translate(48)"/>
</clipPath>
<clipPath id="clip7_23_1408">
<rect width="16" height="16" fill="white" transform="translate(48)"/>
</clipPath>
<clipPath id="clip8_23_1408">
<rect width="16" height="16" fill="white" transform="translate(48)"/>
</clipPath>
<clipPath id="clip9_23_1408">
<rect width="16" height="16" fill="white" transform="translate(72)"/>
</clipPath>
<clipPath id="clip10_23_1408">
<rect width="16" height="16" fill="white" transform="translate(72)"/>
</clipPath>
<clipPath id="clip11_23_1408">
<rect width="16" height="16" fill="white" transform="translate(72)"/>
</clipPath>
<clipPath id="clip12_23_1408">
<rect width="16" height="16" fill="white" transform="translate(96)"/>
</clipPath>
<clipPath id="clip13_23_1408">
<rect width="16" height="16" fill="white" transform="translate(96)"/>
</clipPath>
<clipPath id="clip14_23_1408">
<rect width="16" height="16" fill="white" transform="translate(96)"/>
</clipPath>
</defs>
</svg>
