<svg width="102" height="15" viewBox="0 0 102 15" fill="none" xmlns="http://www.w3.org/2000/svg">
<g clip-path="url(#clip0_1_128)">
<g clip-path="url(#clip1_1_128)">
<g clip-path="url(#clip2_1_128)">
<path fill-rule="evenodd" clip-rule="evenodd" d="M7 12.4985L2.67376 14.89L3.5 9.82476L0 6.23753L4.83688 5.49852L7 0.890015L9.16312 5.49852L14 6.23753L10.5 9.82476L11.3262 14.89L7 12.4985Z" fill="#FFC800"/>
</g>
</g>
</g>
<g clip-path="url(#clip3_1_128)">
<g clip-path="url(#clip4_1_128)">
<g clip-path="url(#clip5_1_128)">
<path fill-rule="evenodd" clip-rule="evenodd" d="M29 12.4985L24.6738 14.89L25.5 9.82476L22 6.23753L26.8369 5.49852L29 0.890015L31.1631 5.49852L36 6.23753L32.5 9.82476L33.3262 14.89L29 12.4985Z" fill="#FFC800"/>
</g>
</g>
</g>
<g clip-path="url(#clip6_1_128)">
<g clip-path="url(#clip7_1_128)">
<g clip-path="url(#clip8_1_128)">
<path fill-rule="evenodd" clip-rule="evenodd" d="M51 12.4985L46.6738 14.89L47.5 9.82476L44 6.23753L48.8369 5.49852L51 0.890015L53.1631 5.49852L58 6.23753L54.5 9.82476L55.3262 14.89L51 12.4985Z" fill="#FFC800"/>
</g>
</g>
</g>
<g clip-path="url(#clip9_1_128)">
<g clip-path="url(#clip10_1_128)">
<g clip-path="url(#clip11_1_128)">
<path fill-rule="evenodd" clip-rule="evenodd" d="M73 12.4985L68.6738 14.89L69.5 9.82476L66 6.23753L70.8369 5.49852L73 0.890015L75.1631 5.49852L80 6.23753L76.5 9.82476L77.3262 14.89L73 12.4985Z" fill="#FFC800"/>
</g>
</g>
</g>
<g clip-path="url(#clip12_1_128)">
<g clip-path="url(#clip13_1_128)">
<g clip-path="url(#clip14_1_128)">
<path fill-rule="evenodd" clip-rule="evenodd" d="M95 12.4985L90.6738 14.89L91.5 9.82476L88 6.23753L92.8369 5.49852L95 0.890015L97.1631 5.49852L102 6.23753L98.5 9.82476L99.3262 14.89L95 12.4985Z" fill="#FFC800"/>
</g>
</g>
</g>
<defs>
<clipPath id="clip0_1_128">
<rect width="14" height="14" fill="white" transform="translate(0 0.890015)"/>
</clipPath>
<clipPath id="clip1_1_128">
<rect width="14" height="14" fill="white" transform="translate(0 0.890015)"/>
</clipPath>
<clipPath id="clip2_1_128">
<rect width="14" height="14" fill="white" transform="translate(0 0.890015)"/>
</clipPath>
<clipPath id="clip3_1_128">
<rect width="14" height="14" fill="white" transform="translate(22 0.890015)"/>
</clipPath>
<clipPath id="clip4_1_128">
<rect width="14" height="14" fill="white" transform="translate(22 0.890015)"/>
</clipPath>
<clipPath id="clip5_1_128">
<rect width="14" height="14" fill="white" transform="translate(22 0.890015)"/>
</clipPath>
<clipPath id="clip6_1_128">
<rect width="14" height="14" fill="white" transform="translate(44 0.890015)"/>
</clipPath>
<clipPath id="clip7_1_128">
<rect width="14" height="14" fill="white" transform="translate(44 0.890015)"/>
</clipPath>
<clipPath id="clip8_1_128">
<rect width="14" height="14" fill="white" transform="translate(44 0.890015)"/>
</clipPath>
<clipPath id="clip9_1_128">
<rect width="14" height="14" fill="white" transform="translate(66 0.890015)"/>
</clipPath>
<clipPath id="clip10_1_128">
<rect width="14" height="14" fill="white" transform="translate(66 0.890015)"/>
</clipPath>
<clipPath id="clip11_1_128">
<rect width="14" height="14" fill="white" transform="translate(66 0.890015)"/>
</clipPath>
<clipPath id="clip12_1_128">
<rect width="14" height="14" fill="white" transform="translate(88 0.890015)"/>
</clipPath>
<clipPath id="clip13_1_128">
<rect width="14" height="14" fill="white" transform="translate(88 0.890015)"/>
</clipPath>
<clipPath id="clip14_1_128">
<rect width="14" height="14" fill="white" transform="translate(88 0.890015)"/>
</clipPath>
</defs>
</svg>
