<svg width="19" height="18" viewBox="0 0 19 18" fill="none" xmlns="http://www.w3.org/2000/svg">
<g clip-path="url(#clip0_20_339)">
<path fill-rule="evenodd" clip-rule="evenodd" d="M17.8099 9.20458C17.8099 8.56634 17.7527 7.95275 17.6463 7.36366H9.16992V10.845H14.0136C13.8049 11.97 13.1708 12.9232 12.2177 13.5613V15.8196H15.1263C16.8281 14.2527 17.8099 11.9454 17.8099 9.20458Z" fill="#4285F4"/>
<path fill-rule="evenodd" clip-rule="evenodd" d="M9.16994 18C11.5999 18 13.6372 17.1941 15.1263 15.8196L12.2177 13.5613C11.4118 14.1013 10.3809 14.4204 9.16994 14.4204C6.82584 14.4204 4.84175 12.8373 4.13401 10.71H1.1272V13.0418C2.60811 15.9832 5.65175 18 9.16994 18Z" fill="#34A853"/>
<path fill-rule="evenodd" clip-rule="evenodd" d="M4.13401 10.71C3.95401 10.17 3.85174 9.59316 3.85174 8.99999C3.85174 8.40682 3.95401 7.82999 4.13401 7.28999V4.95818H1.1272C0.517649 6.17318 0.169922 7.54774 0.169922 8.99999C0.169922 10.4522 0.517649 11.8268 1.1272 13.0418L4.13401 10.71Z" fill="#FBBC05"/>
<path fill-rule="evenodd" clip-rule="evenodd" d="M9.16994 3.57954C10.4913 3.57954 11.6777 4.03363 12.6104 4.92546L15.1918 2.34409C13.6331 0.891817 11.5959 0 9.16994 0C5.65175 0 2.60811 2.01682 1.1272 4.95818L4.13401 7.29C4.84175 5.16273 6.82584 3.57954 9.16994 3.57954Z" fill="#EA4335"/>
</g>
<defs>
<clipPath id="clip0_20_339">
<rect width="18" height="18" fill="white" transform="translate(0.169922)"/>
</clipPath>
</defs>
</svg>
