<svg width="32" height="32" viewBox="0 0 32 32" fill="none" xmlns="http://www.w3.org/2000/svg">
<g clip-path="url(#clip0_1_477)">
<g clip-path="url(#clip1_1_477)">
<g clip-path="url(#clip2_1_477)">
<path d="M32 16C32 7.16344 24.8366 0 16 0C7.16344 0 0 7.16344 0 16C0 24.8366 7.16344 32 16 32C24.8366 32 32 24.8366 32 16Z" fill="#FFFFFE"/>
<path fill-rule="evenodd" clip-rule="evenodd" d="M16.362 8.536C18.594 8.536 18.859 8.546 19.74 8.586C20.556 8.624 20.998 8.763 21.293 8.88C21.683 9.034 21.962 9.22 22.255 9.518C22.547 9.816 22.728 10.1 22.88 10.498C22.995 10.798 23.13 11.25 23.168 12.081C23.208 12.981 23.217 13.251 23.217 15.527C23.217 17.804 23.208 18.073 23.168 18.973C23.131 19.803 22.995 20.255 22.88 20.556C22.7468 20.9249 22.5334 21.2597 22.255 21.536C21.9865 21.8184 21.6576 22.0365 21.293 22.174C20.998 22.291 20.556 22.43 19.74 22.468C18.859 22.508 18.594 22.518 16.362 22.518C14.129 22.518 13.864 22.508 12.982 22.468C12.168 22.43 11.725 22.291 11.43 22.174C11.0657 22.0364 10.7372 21.8183 10.469 21.536C10.1903 21.2598 9.97645 20.925 9.843 20.556C9.729 20.256 9.593 19.804 9.555 18.973C9.515 18.073 9.507 17.803 9.507 15.527C9.507 13.25 9.515 12.98 9.555 12.081C9.593 11.25 9.729 10.798 9.843 10.498C9.995 10.1 10.176 9.816 10.469 9.518C10.761 9.219 11.039 9.034 11.43 8.88C11.725 8.763 12.168 8.624 12.983 8.586C13.865 8.546 14.129 8.536 16.362 8.536ZM16.362 7C18.632 7 18.917 7.01 19.809 7.051C20.699 7.093 21.307 7.237 21.839 7.448C22.389 7.666 22.855 7.958 23.319 8.431C23.785 8.905 24.071 9.381 24.284 9.941C24.491 10.484 24.632 11.104 24.673 12.011C24.713 12.921 24.723 13.211 24.723 15.527C24.723 17.843 24.713 18.133 24.673 19.043C24.633 19.95 24.491 20.57 24.284 21.113C24.071 21.673 23.784 22.149 23.32 22.623C22.9043 23.0553 22.3987 23.3908 21.839 23.606C21.307 23.817 20.699 23.961 19.809 24.003C18.917 24.044 18.633 24.053 16.362 24.053C14.091 24.053 13.806 24.044 12.914 24.003C12.024 23.961 11.416 23.817 10.884 23.606C10.3246 23.3907 9.81937 23.0551 9.404 22.623C8.9772 22.1951 8.64801 21.68 8.439 21.113C8.232 20.57 8.091 19.95 8.05 19.043C8.01 18.133 8 17.843 8 15.527C8 13.211 8.01 12.921 8.05 12.011C8.09 11.104 8.232 10.484 8.439 9.941C8.653 9.381 8.939 8.905 9.403 8.431C9.81865 7.99875 10.3243 7.66316 10.884 7.448C11.416 7.237 12.024 7.093 12.914 7.051C13.806 7.01 14.091 7 16.362 7ZM16.362 11.148C13.99 11.148 12.068 13.108 12.068 15.527C12.068 17.945 13.99 19.906 16.362 19.906C18.733 19.906 20.655 17.946 20.655 15.526C20.655 13.109 18.733 11.148 16.362 11.148ZM16.362 18.369C14.822 18.369 13.574 17.097 13.574 15.527C13.574 13.957 14.822 12.685 16.362 12.685C17.901 12.685 19.149 13.957 19.149 15.527C19.149 17.097 17.901 18.369 16.362 18.369ZM21.829 10.975C21.829 10.41 21.379 9.952 20.825 9.952C20.271 9.952 19.822 10.41 19.822 10.975C19.822 11.54 20.271 11.998 20.825 11.998C21.379 11.998 21.829 11.54 21.829 10.975Z" fill="#1C2039"/>
</g>
</g>
</g>
<defs>
<clipPath id="clip0_1_477">
<rect width="32" height="32" fill="white"/>
</clipPath>
<clipPath id="clip1_1_477">
<rect width="32" height="32" fill="white"/>
</clipPath>
<clipPath id="clip2_1_477">
<rect width="32" height="32" fill="white"/>
</clipPath>
</defs>
</svg>
