<svg width="33" height="32" viewBox="0 0 33 32" fill="none" xmlns="http://www.w3.org/2000/svg">
<g clip-path="url(#clip0_1_485)">
<g clip-path="url(#clip1_1_485)">
<path d="M16.84 32C25.6766 32 32.84 24.8366 32.84 16C32.84 7.16344 25.6766 0 16.84 0C8.00344 0 0.839996 7.16344 0.839996 16C0.839996 24.8366 8.00344 32 16.84 32Z" fill="#FFFFFE"/>
<path d="M24.807 17.174V22.964H21.385V17.562C21.385 16.205 20.89 15.279 19.651 15.279C18.706 15.279 18.143 15.903 17.895 16.507C17.805 16.723 17.782 17.023 17.782 17.325V22.964H14.358C14.358 22.964 14.404 13.814 14.358 12.867H17.781V14.298C17.774 14.308 17.765 14.32 17.759 14.331H17.781V14.298C18.236 13.611 19.048 12.63 20.866 12.63C23.119 12.63 24.807 14.073 24.807 17.174ZM10.777 8C9.606 8 8.84 8.753 8.84 9.744C8.84 10.714 9.584 11.49 10.732 11.49H10.755C11.948 11.49 12.691 10.713 12.691 9.744C12.668 8.754 11.948 8 10.777 8ZM9.043 22.964H12.465V12.867H9.043V22.964Z" fill="#1C2039"/>
</g>
</g>
<defs>
<clipPath id="clip0_1_485">
<rect width="32" height="32" fill="white" transform="translate(0.839996)"/>
</clipPath>
<clipPath id="clip1_1_485">
<rect width="32" height="32" fill="white" transform="translate(0.839996)"/>
</clipPath>
</defs>
</svg>
