<svg width="52" height="52" viewBox="0 0 52 52" fill="none" xmlns="http://www.w3.org/2000/svg">
<g filter="url(#filter0_d_20_271)">
<path d="M39.1827 10.8338L39.2481 10.9029C41.3288 13.1027 42.4347 14.4203 43.4302 15.8635C46.5459 20.4232 47.1825 24.7731 45.3799 29.1422C44.5 31.2549 43.243 33.1453 41.2063 35.3822C40.1679 36.5186 36.2767 40.215 35.089 41.1941C32.7505 43.1128 30.7999 44.2694 28.6487 45.0374C24.1986 46.607 19.8993 45.7382 15.5227 42.377C14.1371 41.3023 12.885 40.1258 10.8037 37.9253L10.7383 37.8562C8.70058 35.6981 7.60692 34.3932 6.62158 32.9647C2.09985 26.353 2.7683 20.1372 8.72386 13.5744C9.64711 12.5574 13.8948 8.51129 14.9634 7.63485C17.3013 5.71547 19.2511 4.55813 21.403 3.7908C25.8532 2.22123 30.1525 3.09007 34.529 6.45124C35.8996 7.51459 37.1414 8.67907 39.1827 10.8338Z" fill="black"/>
</g>
<path d="M39.1827 10.8338L39.2481 10.9029C41.3288 13.1027 42.4347 14.4203 43.4302 15.8635C46.5459 20.4232 47.1825 24.7731 45.3799 29.1422C44.5 31.2549 43.243 33.1453 41.2063 35.3822C40.1679 36.5186 36.2767 40.215 35.089 41.1941C32.7505 43.1128 30.7999 44.2694 28.6487 45.0374C24.1986 46.607 19.8993 45.7382 15.5227 42.377C14.1371 41.3023 12.885 40.1258 10.8037 37.9253L10.7383 37.8562C8.70058 35.6981 7.60692 34.3932 6.62158 32.9647C2.09985 26.353 2.7683 20.1372 8.72386 13.5744C9.64711 12.5574 13.8948 8.51129 14.9634 7.63485C17.3013 5.71547 19.2511 4.55813 21.403 3.7908C25.8532 2.22123 30.1525 3.09007 34.529 6.45124C35.8996 7.51459 37.1414 8.67907 39.1827 10.8338Z" fill="#2CB3AC"/>
<path fill-rule="evenodd" clip-rule="evenodd" d="M22.8958 16.2152L25.019 14.6866L27.1422 16.2152L26.3308 13.7407L28.4549 12.2102H25.8294L25.019 9.73576L24.2076 12.2102H21.5831L23.7072 13.7407L22.8958 16.2152ZM14.7985 19.4706L16.9217 17.942L19.0449 19.4696L18.2345 16.9961L20.3566 15.4656H17.7331L16.9217 12.9912L16.1103 15.4656H13.4858L15.609 16.9961L14.7985 19.4706ZM30.9931 19.4706L33.1163 17.942L35.2394 19.4696L34.429 16.9961L36.5522 15.4656H33.9267L33.1163 12.9912L32.3049 15.4656H29.6813L31.8035 16.9961L30.9931 19.4706ZM25.019 28.8541C28.036 28.8541 30.4908 26.4199 30.4908 23.4284C30.4908 20.436 28.036 18.0028 25.019 18.0028C22.002 18.0028 19.5472 20.436 19.5472 23.4284C19.5472 26.4199 22.002 28.8541 25.019 28.8541ZM16.0456 24.543L18.1687 23.0124H15.5442L14.7328 20.538L13.9214 23.0134H11.2969L13.42 24.544L12.6106 27.0174L14.7338 25.4898L16.856 27.0164L16.0456 24.543ZM38.7411 22.7073H36.1156L35.3042 20.2319L34.4938 22.7073H31.8693L33.9924 24.2379L33.182 26.7103L35.3042 25.1837L37.4274 26.7093L36.6179 24.2369L38.7411 22.7073ZM25.019 29.9392C18.5573 29.9392 16.2643 32.861 16.2643 35.3649V36.45H33.7736V35.3649C33.7736 32.861 31.4807 29.9392 25.019 29.9392Z" fill="white"/>
<defs>
<filter id="filter0_d_20_271" x="-0.24948" y="1.07259" width="50.551" height="50.6076" filterUnits="userSpaceOnUse" color-interpolation-filters="sRGB">
<feFlood flood-opacity="0" result="BackgroundImageFix"/>
<feColorMatrix in="SourceAlpha" type="matrix" values="0 0 0 0 0 0 0 0 0 0 0 0 0 0 0 0 0 0 127 0" result="hardAlpha"/>
<feOffset dy="1.96226"/>
<feGaussianBlur stdDeviation="1.96226"/>
<feColorMatrix type="matrix" values="0 0 0 0 0.172549 0 0 0 0 0.701961 0 0 0 0 0.67451 0 0 0 1 0"/>
<feBlend mode="normal" in2="BackgroundImageFix" result="effect1_dropShadow_20_271"/>
<feBlend mode="normal" in="SourceGraphic" in2="effect1_dropShadow_20_271" result="shape"/>
</filter>
</defs>
</svg>
