<svg width="51" height="52" viewBox="0 0 51 52" fill="none" xmlns="http://www.w3.org/2000/svg">
<g filter="url(#filter0_d_20_257)">
<path d="M36.7454 12.5968L36.8052 12.6579C38.7085 14.601 39.7225 15.7671 40.6392 17.0478C43.5091 21.0943 44.1492 24.9912 42.5986 28.9437C41.8414 30.855 40.7421 32.5726 38.9479 34.6136C38.033 35.6507 34.596 39.0316 33.5446 39.9297C31.4743 41.6896 29.7405 42.759 27.8204 43.4826C23.848 44.9621 19.9729 44.2491 15.9893 41.2988C14.7279 40.3553 13.585 39.3183 11.681 37.3745L11.6212 37.3134C9.75719 35.407 8.75444 34.2522 7.84704 32.9846C3.68211 27.117 4.18504 21.5237 9.43125 15.5359C10.2445 14.6079 13.9963 10.9073 14.9423 10.1033C17.012 8.34273 18.7452 7.27268 20.6659 6.54975C24.6383 5.07024 28.5134 5.7832 32.497 8.73349C33.7446 9.66706 34.8783 10.6935 36.7454 12.5968Z" fill="black"/>
</g>
<path d="M36.7454 12.5968L36.8052 12.6579C38.7085 14.601 39.7225 15.7671 40.6392 17.0478C43.5091 21.0943 44.1492 24.9912 42.5986 28.9437C41.8414 30.855 40.7421 32.5726 38.9479 34.6136C38.033 35.6507 34.596 39.0316 33.5446 39.9296C31.4743 41.6896 29.7405 42.759 27.8204 43.4826C23.848 44.9621 19.9729 44.2491 15.9893 41.2988C14.7279 40.3553 13.585 39.3183 11.681 37.3745L11.6212 37.3134C9.75719 35.407 8.75444 34.2522 7.84704 32.9846C3.68211 27.117 4.18504 21.5237 9.43125 15.5359C10.2445 14.6079 13.9963 10.9073 14.9423 10.1033C17.012 8.34273 18.7452 7.27268 20.6659 6.54975C24.6383 5.07024 28.5134 5.7832 32.497 8.73349C33.7446 9.66706 34.8783 10.6935 36.7454 12.5968Z" fill="#E65085"/>
<path d="M30.4773 13.2203H18.3613C18.196 13.2179 18.0318 13.2488 17.8786 13.3112C17.7254 13.3735 17.5862 13.466 17.4695 13.5831C17.3527 13.7003 17.2607 13.8397 17.1989 13.9932C17.1372 14.1466 17.1068 14.3109 17.1098 14.4763V15.845H18.3613V14.7275H30.4773V30.6712H18.3622V28.5339H17.1107V33.949C17.1107 34.6417 17.6395 35.2534 18.3622 35.2534H30.4773C31.2001 35.2542 31.7289 34.7466 31.7289 34.0538V14.4216C31.7289 13.728 31.2001 13.2203 30.4773 13.2203ZM24.2109 34.0873C23.5693 34.0873 23.051 33.5894 23.051 32.9768C23.051 32.3607 23.5693 31.8628 24.2109 31.8628C24.8508 31.8628 25.3699 32.3607 25.3699 32.9759C25.3699 33.5894 24.8499 34.0873 24.2109 34.0873Z" fill="white"/>
<path fill-rule="evenodd" clip-rule="evenodd" d="M16.9926 22.6632H23.0043V26.6654H16.9926V22.6632ZM20.8696 17.3433H28.2713V21.7096H20.8696V17.3433ZM15.4546 16.9793H19.2427V21.7087H15.4546V16.9793Z" fill="white"/>
<defs>
<filter id="filter0_d_20_257" x="-1.9842" y="0.514533" width="52.455" height="52.5287" filterUnits="userSpaceOnUse" color-interpolation-filters="sRGB">
<feFlood flood-opacity="0" result="BackgroundImageFix"/>
<feColorMatrix in="SourceAlpha" type="matrix" values="0 0 0 0 0 0 0 0 0 0 0 0 0 0 0 0 0 0 127 0" result="hardAlpha"/>
<feOffset dy="1.76271"/>
<feGaussianBlur stdDeviation="3.52542"/>
<feColorMatrix type="matrix" values="0 0 0 0 0.785263 0 0 0 0 0.164479 0 0 0 0 0.383823 0 0 0 1 0"/>
<feBlend mode="normal" in2="BackgroundImageFix" result="effect1_dropShadow_20_257"/>
<feBlend mode="normal" in="SourceGraphic" in2="effect1_dropShadow_20_257" result="shape"/>
</filter>
</defs>
</svg>
