<svg width="52" height="52" viewBox="0 0 52 52" fill="none" xmlns="http://www.w3.org/2000/svg">
<g filter="url(#filter0_d_20_284)">
<path d="M38.6921 10.2927L38.76 10.362C40.9195 12.5668 42.07 13.8898 43.1101 15.3429C46.3663 19.9341 47.0925 24.3557 45.3333 28.8401C44.4741 31.0088 43.2268 32.9576 41.191 35.2734C40.153 36.45 36.2533 40.2861 35.0604 41.305C32.7114 43.3019 30.7442 44.5153 28.5656 45.3362C24.0585 47.0149 19.6618 46.206 15.1419 42.8585C13.7107 41.788 12.4139 40.6113 10.2537 38.4059L10.1858 38.3366C8.07086 36.1735 6.93312 34.8633 5.90358 33.425C1.17798 26.7676 1.74862 20.4213 7.70104 13.6274C8.62382 12.5745 12.8806 8.37575 13.954 7.46358C16.3023 5.466 18.2688 4.2519 20.4481 3.43166C24.9552 1.75299 29.3519 2.56192 33.8718 5.90936C35.2874 6.96861 36.5736 8.13321 38.6921 10.2927Z" fill="black"/>
</g>
<path d="M38.6921 10.2927L38.76 10.362C40.9195 12.5668 42.07 13.8898 43.1101 15.3429C46.3663 19.9341 47.0925 24.3557 45.3333 28.8401C44.4741 31.0088 43.2268 32.9576 41.191 35.2734C40.153 36.45 36.2533 40.2861 35.0604 41.305C32.7114 43.3019 30.7442 44.5153 28.5656 45.3362C24.0585 47.0149 19.6618 46.206 15.1419 42.8585C13.7107 41.788 12.4139 40.6113 10.2537 38.4059L10.1858 38.3366C8.07086 36.1735 6.93312 34.8633 5.90358 33.425C1.17798 26.7676 1.74862 20.4213 7.70104 13.6274C8.62382 12.5745 12.8806 8.37575 13.954 7.46358C16.3023 5.466 18.2688 4.2519 20.4481 3.43166C24.9552 1.75299 29.3519 2.56192 33.8718 5.90936C35.2874 6.96861 36.5736 8.13321 38.6921 10.2927Z" fill="#FD9960"/>
<path d="M24.984 15.083C22.444 15.083 20.404 17.104 20.404 19.554C20.404 22.035 22.474 24.026 24.984 24.026C27.525 24.026 29.564 22.005 29.564 19.554C29.564 17.104 27.525 15.083 24.984 15.083ZM25.329 20.718L24.294 21.728L23.259 20.718L22.255 19.738L23.29 18.728L24.294 19.708L26.678 17.38L27.714 18.39L25.329 20.718ZM34.145 18.298C33.737 17.931 33.58 17.349 33.8 16.859L33.988 16.4C34.302 15.696 33.894 14.9 33.141 14.685L32.639 14.562C32.3804 14.4905 32.1507 14.34 31.982 14.1314C31.8132 13.9229 31.7139 13.6668 31.698 13.399V12.878C31.667 12.112 30.945 11.561 30.192 11.684L29.69 11.775C29.125 11.867 28.592 11.622 28.341 11.132L28.091 10.704C27.714 10.03 26.835 9.846 26.208 10.274L25.8 10.55C25.5774 10.6997 25.3152 10.7797 25.047 10.7797C24.7787 10.7797 24.5165 10.6997 24.294 10.55L23.886 10.244C23.259 9.784 22.349 9.999 21.973 10.673L21.722 11.102C21.439 11.592 20.906 11.837 20.342 11.745L19.839 11.653C19.6585 11.6221 19.4736 11.6292 19.296 11.6737C19.1185 11.7182 18.9521 11.7992 18.8075 11.9115C18.6629 12.0238 18.5433 12.165 18.4563 12.3261C18.3693 12.4871 18.3167 12.6645 18.302 12.847L18.271 13.337C18.2551 13.6051 18.1558 13.8615 17.9869 14.0702C17.8179 14.279 17.5879 14.4296 17.329 14.501L16.827 14.654C16.075 14.869 15.667 15.665 15.98 16.369L16.169 16.829C16.389 17.319 16.231 17.901 15.824 18.269L15.447 18.605C15.3072 18.7206 15.1946 18.8656 15.1173 19.0298C15.0401 19.1939 15 19.3731 15 19.5545C15 19.7359 15.0401 19.9151 15.1173 20.0792C15.1946 20.2434 15.3072 20.3884 15.447 20.504L15.824 20.841C16.231 21.208 16.388 21.791 16.169 22.281L15.98 22.74C15.667 23.444 16.075 24.24 16.827 24.455L17.329 24.577C17.863 24.73 18.239 25.19 18.271 25.741L18.302 26.231C18.333 26.997 19.055 27.548 19.808 27.425L20.31 27.333C20.875 27.242 21.408 27.487 21.659 27.977L21.909 28.405C22.286 29.079 23.165 29.263 23.792 28.835L24.2 28.558C24.4225 28.4083 24.6847 28.3283 24.953 28.3283C25.2212 28.3283 25.4834 28.4083 25.706 28.558L26.114 28.865C26.741 29.325 27.651 29.11 28.027 28.435L28.278 28.007C28.561 27.517 29.094 27.272 29.658 27.364L30.161 27.456C30.3415 27.4869 30.5265 27.4798 30.7041 27.4352C30.8818 27.3906 31.0482 27.3096 31.1928 27.1972C31.3374 27.0847 31.4569 26.9434 31.5439 26.7823C31.6309 26.6211 31.6834 26.4436 31.698 26.261L31.729 25.771C31.761 25.221 32.137 24.761 32.671 24.608L33.173 24.485C33.925 24.271 34.333 23.475 34.02 22.77L33.831 22.31C33.611 21.82 33.769 21.239 34.176 20.871L34.553 20.534C34.6926 20.4184 34.805 20.2734 34.8822 20.1094C34.9593 19.9453 34.9993 19.7663 34.9993 19.585C34.9993 19.4037 34.9593 19.2247 34.8822 19.0606C34.805 18.8966 34.6926 18.7516 34.553 18.636L34.145 18.298ZM24.985 25.771C21.471 25.771 18.647 22.985 18.647 19.585C18.647 16.155 21.502 13.399 24.984 13.399C28.498 13.399 31.322 16.186 31.322 19.585C31.322 22.985 28.498 25.771 24.984 25.771H24.985ZM15.133 36.551L18.208 29.048C18.6313 29.2434 19.0908 29.3479 19.557 29.355C19.745 29.355 19.933 29.325 20.122 29.293H20.184L20.216 29.355C20.749 30.335 21.847 30.947 23.039 30.947C23.353 30.947 23.698 30.886 23.98 30.794L20.749 38.726C20.7274 38.7818 20.6902 38.8302 20.6418 38.8653C20.5934 38.9004 20.5359 38.9208 20.4762 38.924C20.4165 38.9272 20.3571 38.913 20.3053 38.8832C20.2534 38.8534 20.2113 38.8092 20.184 38.756L18.647 36.123C18.584 36.031 18.49 36.001 18.397 36.031L15.51 36.919C15.259 37.011 15.04 36.765 15.133 36.551ZM29.22 38.818L25.957 30.855C26.271 30.947 26.584 31.009 26.898 31.009C28.09 31.009 29.157 30.396 29.722 29.385L29.752 29.325H29.816C30.004 29.355 30.192 29.385 30.38 29.385C30.882 29.385 31.322 29.263 31.76 29.079L34.835 36.644C34.929 36.889 34.71 37.134 34.459 37.042L31.573 36.154C31.478 36.123 31.384 36.154 31.322 36.246L29.784 38.879C29.659 39.063 29.314 39.031 29.22 38.818Z" fill="white"/>
<defs>
<filter id="filter0_d_20_284" x="-1.25122" y="0.584015" width="51.5164" height="51.5999" filterUnits="userSpaceOnUse" color-interpolation-filters="sRGB">
<feFlood flood-opacity="0" result="BackgroundImageFix"/>
<feColorMatrix in="SourceAlpha" type="matrix" values="0 0 0 0 0 0 0 0 0 0 0 0 0 0 0 0 0 0 127 0" result="hardAlpha"/>
<feOffset dy="2"/>
<feGaussianBlur stdDeviation="2"/>
<feColorMatrix type="matrix" values="0 0 0 0 0.992157 0 0 0 0 0.6 0 0 0 0 0.376471 0 0 0 1 0"/>
<feBlend mode="normal" in2="BackgroundImageFix" result="effect1_dropShadow_20_284"/>
<feBlend mode="normal" in="SourceGraphic" in2="effect1_dropShadow_20_284" result="shape"/>
</filter>
</defs>
</svg>
